<svg xmlns="http://www.w3.org/2000/svg" version="1.1" xmlns:xlink="http://www.w3.org/1999/xlink" width="512" height="512" x="0" y="0" viewBox="0 0 24 24" style="enable-background:new 0 0 512 512" xml:space="preserve" class=""><g><path fill="#fafafa" fill-rule="evenodd" d="M8.92 5.75c-.365 0-.712.16-.95.437l-4.285 5a1.25 1.25 0 0 0 0 1.627l4.286 5c.237.277.584.436.949.436H20.5a.75.75 0 0 0 .75-.75v-11a.75.75 0 0 0-.75-.75zm-2.088-.54a2.75 2.75 0 0 1 2.088-.96H20.5a2.25 2.25 0 0 1 2.25 2.25v11a2.25 2.25 0 0 1-2.25 2.25H8.92a2.75 2.75 0 0 1-2.088-.96l-4.286-5a2.75 2.75 0 0 1 0-3.58zm10.79 3.29a.75.75 0 0 1 0 1.06l-2.5 2.5 2.5 2.5a.75.75 0 0 1-1.062 1.061l-2.5-2.5-2.5 2.5a.75.75 0 0 1-1.06-1.06l2.5-2.5-2.5-2.5A.75.75 0 1 1 11.56 8.5l2.5 2.5 2.5-2.5a.75.75 0 0 1 1.061 0z" clip-rule="evenodd" opacity="1" data-original="#000000" class=""></path></g></svg>