<svg xmlns="http://www.w3.org/2000/svg" version="1.1" xmlns:xlink="http://www.w3.org/1999/xlink" width="512" height="512" x="0" y="0" viewBox="0 0 512 512" style="enable-background:new 0 0 512 512" xml:space="preserve"><g><path d="M256 0c-8.284 0-15 6.716-15 15v32c0 8.284 6.716 15 15 15s15-6.716 15-15V15c0-8.284-6.716-15-15-15zM256 450c-8.284 0-15 6.716-15 15v32c0 8.284 6.716 15 15 15s15-6.716 15-15v-32c0-8.284-6.716-15-15-15zM119.529 98.315 96.901 75.687c-5.858-5.857-15.356-5.857-21.213 0-5.858 5.858-5.858 15.356 0 21.213l22.628 22.628c2.928 2.929 6.767 4.394 10.606 4.394s7.678-1.465 10.607-4.394c5.858-5.858 5.858-15.356 0-21.213zM436.313 415.099l-22.628-22.628c-5.858-5.857-15.356-5.857-21.213 0-5.858 5.858-5.858 15.356 0 21.213l22.628 22.628a14.95 14.95 0 0 0 10.606 4.394c3.839 0 7.678-1.465 10.607-4.394 5.858-5.858 5.858-15.356 0-21.213zM47 241H15c-8.284 0-15 6.716-15 15s6.716 15 15 15h32c8.284 0 15-6.716 15-15s-6.716-15-15-15zM497 241h-32c-8.284 0-15 6.716-15 15s6.716 15 15 15h32c8.284 0 15-6.716 15-15s-6.716-15-15-15zM119.529 392.471c-5.858-5.857-15.356-5.857-21.213 0l-22.628 22.628c-5.858 5.858-5.858 15.356 0 21.213 2.928 2.929 6.767 4.394 10.606 4.394s7.678-1.465 10.606-4.393l22.629-22.629c5.858-5.858 5.858-15.356 0-21.213zM436.313 75.688c-5.858-5.857-15.356-5.857-21.213 0l-22.628 22.627c-5.858 5.858-5.858 15.356 0 21.213 2.928 2.929 6.767 4.394 10.606 4.394s7.678-1.465 10.607-4.393l22.628-22.628c5.858-5.858 5.858-15.356 0-21.213zM256 97c-87.673 0-159 71.327-159 159s71.327 159 159 159 159-71.327 159-159S343.673 97 256 97zm15 287.123V127.877c64.089 7.456 114 62.066 114 128.123s-49.911 120.667-114 128.123z" fill="#fafafa" opacity="1" data-original="#000000"></path></g></svg>