<svg xmlns="http://www.w3.org/2000/svg" version="1.1" xmlns:xlink="http://www.w3.org/1999/xlink" width="512" height="512" x="0" y="0" viewBox="0 0 24 24" style="enable-background:new 0 0 512 512" xml:space="preserve" class=""><g><path fill="#2d2d2d" fill-rule="evenodd" d="M7 3a1 1 0 0 0 1 1v5.657l-4.502 7.312C2.195 19.085 3.601 22 6.183 22h11.634c2.582 0 3.988-2.915 2.685-5.031L16 9.657V4a1 1 0 1 0 0-2H8a1 1 0 0 0-1 1zm3 1h4v5.94a1 1 0 0 0 .148.524L15.71 13H8.29l1.562-2.536A1 1 0 0 0 10 9.94zM7.059 15 5.2 18.017c-.562.914.115 1.983.982 1.983h11.634c.867 0 1.544-1.07.982-1.983L16.94 15z" clip-rule="evenodd" opacity="1" data-original="#000000"></path></g></svg>